<svg xmlns="http://www.w3.org/2000/svg"
  viewBox="0 0 24 24"
  fill="none"
  stroke="currentColor"
  stroke-width="2"
  stroke-linecap="round"
  stroke-linejoin="round"
  aria-hidden="true">

  <g transform="translate(12 12) scale(0.8333333) translate(-12 -12)">
    <circle cx="12" cy="12" r="3" />
    <path
      d="M19.4 15a1.7 1.7 0 0 0 .34 1.87l.06.06a2 2 0 1 1-2.83 2.83l-.06-.06A1.7 1.7 0 0 0 15 19.4a1.7 1.7 0 0 0-1 .6 1.7 1.7 0 0 0-.4 1.1V21a2 2 0 1 1-4 0v-.1a1.7 1.7 0 0 0-1.4-1.7 1.7 1.7 0 0 0-1.87.34l-.06.06a2 2 0 1 1-2.83-2.83l.06-.06A1.7 1.7 0 0 0 4.6 15a1.7 1.7 0 0 0-.6-1 1.7 1.7 0 0 0-1.1-.4H3a2 2 0 1 1 0-4h.1a1.7 1.7 0 0 0 1.7-1.4 1.7 1.7 0 0 0-.34-1.87l-.06-.06a2 2 0 1 1 2.83-2.83l.06.06A1.7 1.7 0 0 0 9 4.6a1.7 1.7 0 0 0 1-.6 1.7 1.7 0 0 0 .4-1.1V3a2 2 0 1 1 4 0v.1a1.7 1.7 0 0 0 1.4 1.7 1.7 1.7 0 0 0 1.87-.34l.06-.06a2 2 0 1 1 2.83 2.83l-.06.06A1.7 1.7 0 0 0 19.4 9a1.7 1.7 0 0 0 .6 1 1.7 1.7 0 0 0 1.1.4h.1a2 2 0 1 1 0 4h-.1a1.7 1.7 0 0 0-1.7 1.4z" />
  </g>

</svg>
